<mxfile host="65bd71144e">
    <diagram id="OnEnxwXNac1VsHZyFq_4" name="1.Step">
        <mxGraphModel dx="850" dy="609" grid="1" gridSize="10" guides="1" tooltips="1" connect="1" arrows="1" fold="1" page="1" pageScale="1" pageWidth="827" pageHeight="1169" math="0" shadow="0">
            <root>
                <mxCell id="0"/>
                <mxCell id="1" parent="0"/>
                <mxCell id="2" value="" style="shape=actor;whiteSpace=wrap;html=1;" parent="1" vertex="1">
                    <mxGeometry x="330" y="340" width="120" height="140" as="geometry"/>
                </mxCell>
                <mxCell id="4" value="BOOKS" style="ellipse;shape=cloud;whiteSpace=wrap;html=1;" parent="1" vertex="1">
                    <mxGeometry x="500" y="160" width="180" height="120" as="geometry"/>
                </mxCell>
                <mxCell id="6" value="read" style="ellipse;shape=cloud;whiteSpace=wrap;html=1;" vertex="1" parent="1">
                    <mxGeometry x="110" y="150" width="200" height="140" as="geometry"/>
                </mxCell>
            </root>
        </mxGraphModel>
    </diagram>
    <diagram id="t3pHYIN8cvKYJxCbsiTd" name="Page-2">
        <mxGraphModel dx="1677" dy="609" grid="1" gridSize="10" guides="1" tooltips="1" connect="1" arrows="1" fold="1" page="1" pageScale="1" pageWidth="827" pageHeight="1169" math="0" shadow="0">
            <root>
                <mxCell id="rbROZWFOQKRqoTYGRyWD-0"/>
                <mxCell id="rbROZWFOQKRqoTYGRyWD-1" parent="rbROZWFOQKRqoTYGRyWD-0"/>
                <mxCell id="iqUHdx8OZsN5uw_Mtysf-0" value="book" style="rounded=1;whiteSpace=wrap;html=1;" vertex="1" parent="rbROZWFOQKRqoTYGRyWD-1">
                    <mxGeometry x="130" y="160" width="120" height="60" as="geometry"/>
                </mxCell>
                <mxCell id="iqUHdx8OZsN5uw_Mtysf-7" style="edgeStyle=none;html=1;exitX=0.5;exitY=1;exitDx=0;exitDy=0;entryX=0.5;entryY=0;entryDx=0;entryDy=0;" edge="1" parent="rbROZWFOQKRqoTYGRyWD-1" source="iqUHdx8OZsN5uw_Mtysf-1" target="iqUHdx8OZsN5uw_Mtysf-0">
                    <mxGeometry relative="1" as="geometry"/>
                </mxCell>
                <mxCell id="iqUHdx8OZsN5uw_Mtysf-1" value="id" style="ellipse;whiteSpace=wrap;html=1;" vertex="1" parent="rbROZWFOQKRqoTYGRyWD-1">
                    <mxGeometry x="130" y="40" width="120" height="80" as="geometry"/>
                </mxCell>
                <mxCell id="iqUHdx8OZsN5uw_Mtysf-8" style="edgeStyle=none;html=1;exitX=1;exitY=0.5;exitDx=0;exitDy=0;entryX=0.25;entryY=0;entryDx=0;entryDy=0;" edge="1" parent="rbROZWFOQKRqoTYGRyWD-1" source="iqUHdx8OZsN5uw_Mtysf-2" target="iqUHdx8OZsN5uw_Mtysf-0">
                    <mxGeometry relative="1" as="geometry"/>
                </mxCell>
                <mxCell id="iqUHdx8OZsN5uw_Mtysf-2" value="title" style="ellipse;whiteSpace=wrap;html=1;" vertex="1" parent="rbROZWFOQKRqoTYGRyWD-1">
                    <mxGeometry x="-10" y="80" width="120" height="80" as="geometry"/>
                </mxCell>
                <mxCell id="iqUHdx8OZsN5uw_Mtysf-9" style="edgeStyle=none;html=1;exitX=1;exitY=0;exitDx=0;exitDy=0;" edge="1" parent="rbROZWFOQKRqoTYGRyWD-1" source="iqUHdx8OZsN5uw_Mtysf-3" target="iqUHdx8OZsN5uw_Mtysf-0">
                    <mxGeometry relative="1" as="geometry"/>
                </mxCell>
                <mxCell id="iqUHdx8OZsN5uw_Mtysf-3" value="author" style="ellipse;whiteSpace=wrap;html=1;" vertex="1" parent="rbROZWFOQKRqoTYGRyWD-1">
                    <mxGeometry y="170" width="120" height="80" as="geometry"/>
                </mxCell>
                <mxCell id="iqUHdx8OZsN5uw_Mtysf-10" style="edgeStyle=none;html=1;exitX=0.5;exitY=0;exitDx=0;exitDy=0;entryX=0.25;entryY=1;entryDx=0;entryDy=0;" edge="1" parent="rbROZWFOQKRqoTYGRyWD-1" source="iqUHdx8OZsN5uw_Mtysf-4" target="iqUHdx8OZsN5uw_Mtysf-0">
                    <mxGeometry relative="1" as="geometry"/>
                </mxCell>
                <mxCell id="iqUHdx8OZsN5uw_Mtysf-4" value="publisher" style="ellipse;whiteSpace=wrap;html=1;" vertex="1" parent="rbROZWFOQKRqoTYGRyWD-1">
                    <mxGeometry x="100" y="260" width="120" height="80" as="geometry"/>
                </mxCell>
                <mxCell id="iqUHdx8OZsN5uw_Mtysf-11" style="edgeStyle=none;html=1;exitX=0;exitY=0;exitDx=0;exitDy=0;entryX=0.871;entryY=1.014;entryDx=0;entryDy=0;entryPerimeter=0;" edge="1" parent="rbROZWFOQKRqoTYGRyWD-1" source="iqUHdx8OZsN5uw_Mtysf-5" target="iqUHdx8OZsN5uw_Mtysf-0">
                    <mxGeometry relative="1" as="geometry"/>
                </mxCell>
                <mxCell id="iqUHdx8OZsN5uw_Mtysf-5" value="type" style="ellipse;whiteSpace=wrap;html=1;" vertex="1" parent="rbROZWFOQKRqoTYGRyWD-1">
                    <mxGeometry x="250" y="240" width="120" height="80" as="geometry"/>
                </mxCell>
                <mxCell id="iqUHdx8OZsN5uw_Mtysf-12" style="edgeStyle=none;html=1;exitX=0;exitY=0;exitDx=0;exitDy=0;entryX=1;entryY=0.75;entryDx=0;entryDy=0;" edge="1" parent="rbROZWFOQKRqoTYGRyWD-1" source="iqUHdx8OZsN5uw_Mtysf-6" target="iqUHdx8OZsN5uw_Mtysf-0">
                    <mxGeometry relative="1" as="geometry"/>
                </mxCell>
                <mxCell id="iqUHdx8OZsN5uw_Mtysf-6" value="isbn" style="ellipse;whiteSpace=wrap;html=1;" vertex="1" parent="rbROZWFOQKRqoTYGRyWD-1">
                    <mxGeometry x="380" y="250" width="120" height="80" as="geometry"/>
                </mxCell>
                <mxCell id="iqUHdx8OZsN5uw_Mtysf-14" style="edgeStyle=none;html=1;entryX=1;entryY=0.5;entryDx=0;entryDy=0;" edge="1" parent="rbROZWFOQKRqoTYGRyWD-1" source="iqUHdx8OZsN5uw_Mtysf-13" target="iqUHdx8OZsN5uw_Mtysf-0">
                    <mxGeometry relative="1" as="geometry"/>
                </mxCell>
                <mxCell id="iqUHdx8OZsN5uw_Mtysf-13" value="read status" style="ellipse;whiteSpace=wrap;html=1;" vertex="1" parent="rbROZWFOQKRqoTYGRyWD-1">
                    <mxGeometry x="380" y="150" width="120" height="80" as="geometry"/>
                </mxCell>
                <mxCell id="iqUHdx8OZsN5uw_Mtysf-17" style="edgeStyle=none;html=1;" edge="1" parent="rbROZWFOQKRqoTYGRyWD-1" source="iqUHdx8OZsN5uw_Mtysf-15" target="iqUHdx8OZsN5uw_Mtysf-0">
                    <mxGeometry relative="1" as="geometry"/>
                </mxCell>
                <mxCell id="iqUHdx8OZsN5uw_Mtysf-15" value="read date start" style="ellipse;whiteSpace=wrap;html=1;" vertex="1" parent="rbROZWFOQKRqoTYGRyWD-1">
                    <mxGeometry x="270" y="20" width="120" height="80" as="geometry"/>
                </mxCell>
                <mxCell id="iqUHdx8OZsN5uw_Mtysf-18" style="edgeStyle=none;html=1;exitX=0;exitY=0.5;exitDx=0;exitDy=0;entryX=1;entryY=0;entryDx=0;entryDy=0;" edge="1" parent="rbROZWFOQKRqoTYGRyWD-1" source="iqUHdx8OZsN5uw_Mtysf-16" target="iqUHdx8OZsN5uw_Mtysf-0">
                    <mxGeometry relative="1" as="geometry"/>
                </mxCell>
                <mxCell id="iqUHdx8OZsN5uw_Mtysf-16" value="read date end" style="ellipse;whiteSpace=wrap;html=1;" vertex="1" parent="rbROZWFOQKRqoTYGRyWD-1">
                    <mxGeometry x="420" y="50" width="120" height="80" as="geometry"/>
                </mxCell>
            </root>
        </mxGraphModel>
    </diagram>
    <diagram id="K5z6ivK4ivXv16m1NG3x" name="Page-3">
        <mxGraphModel dx="850" dy="609" grid="1" gridSize="10" guides="1" tooltips="1" connect="1" arrows="1" fold="1" page="1" pageScale="1" pageWidth="827" pageHeight="1169" math="0" shadow="0">
            <root>
                <mxCell id="KM9IbWNyBYNDadaW3vht-0"/>
                <mxCell id="KM9IbWNyBYNDadaW3vht-1" parent="KM9IbWNyBYNDadaW3vht-0"/>
                <mxCell id="KM9IbWNyBYNDadaW3vht-2" value="book" style="swimlane;fontStyle=0;childLayout=stackLayout;horizontal=1;startSize=26;fillColor=none;horizontalStack=0;resizeParent=1;resizeParentMax=0;resizeLast=0;collapsible=1;marginBottom=0;" vertex="1" parent="KM9IbWNyBYNDadaW3vht-1">
                    <mxGeometry x="230" y="90" width="210" height="260" as="geometry"/>
                </mxCell>
                <mxCell id="KM9IbWNyBYNDadaW3vht-3" value="idÂ  int" style="text;strokeColor=none;fillColor=none;align=left;verticalAlign=top;spacingLeft=4;spacingRight=4;overflow=hidden;rotatable=0;points=[[0,0.5],[1,0.5]];portConstraint=eastwest;" vertex="1" parent="KM9IbWNyBYNDadaW3vht-2">
                    <mxGeometry y="26" width="210" height="26" as="geometry"/>
                </mxCell>
                <mxCell id="KM9IbWNyBYNDadaW3vht-4" value="title varchar" style="text;strokeColor=none;fillColor=none;align=left;verticalAlign=top;spacingLeft=4;spacingRight=4;overflow=hidden;rotatable=0;points=[[0,0.5],[1,0.5]];portConstraint=eastwest;" vertex="1" parent="KM9IbWNyBYNDadaW3vht-2">
                    <mxGeometry y="52" width="210" height="26" as="geometry"/>
                </mxCell>
                <mxCell id="KM9IbWNyBYNDadaW3vht-5" value="author varchar" style="text;strokeColor=none;fillColor=none;align=left;verticalAlign=top;spacingLeft=4;spacingRight=4;overflow=hidden;rotatable=0;points=[[0,0.5],[1,0.5]];portConstraint=eastwest;" vertex="1" parent="KM9IbWNyBYNDadaW3vht-2">
                    <mxGeometry y="78" width="210" height="26" as="geometry"/>
                </mxCell>
                <mxCell id="A5GkDvzwMgWImlhggK0c-0" value="publisher varchar" style="text;strokeColor=none;fillColor=none;align=left;verticalAlign=top;spacingLeft=4;spacingRight=4;overflow=hidden;rotatable=0;points=[[0,0.5],[1,0.5]];portConstraint=eastwest;" vertex="1" parent="KM9IbWNyBYNDadaW3vht-2">
                    <mxGeometry y="104" width="210" height="26" as="geometry"/>
                </mxCell>
                <mxCell id="A5GkDvzwMgWImlhggK0c-1" value="type varchar" style="text;strokeColor=none;fillColor=none;align=left;verticalAlign=top;spacingLeft=4;spacingRight=4;overflow=hidden;rotatable=0;points=[[0,0.5],[1,0.5]];portConstraint=eastwest;" vertex="1" parent="KM9IbWNyBYNDadaW3vht-2">
                    <mxGeometry y="130" width="210" height="26" as="geometry"/>
                </mxCell>
                <mxCell id="A5GkDvzwMgWImlhggK0c-2" value="read_statusÂ  enum(&quot;true&quot;, &quot;false&quot;)" style="text;strokeColor=none;fillColor=none;align=left;verticalAlign=top;spacingLeft=4;spacingRight=4;overflow=hidden;rotatable=0;points=[[0,0.5],[1,0.5]];portConstraint=eastwest;" vertex="1" parent="KM9IbWNyBYNDadaW3vht-2">
                    <mxGeometry y="156" width="210" height="26" as="geometry"/>
                </mxCell>
                <mxCell id="A5GkDvzwMgWImlhggK0c-3" value="read_date_startÂ  date" style="text;strokeColor=none;fillColor=none;align=left;verticalAlign=top;spacingLeft=4;spacingRight=4;overflow=hidden;rotatable=0;points=[[0,0.5],[1,0.5]];portConstraint=eastwest;" vertex="1" parent="KM9IbWNyBYNDadaW3vht-2">
                    <mxGeometry y="182" width="210" height="26" as="geometry"/>
                </mxCell>
                <mxCell id="OIMAiKs3izfCj4mN0UPK-0" value="read_date_endÂ  date" style="text;strokeColor=none;fillColor=none;align=left;verticalAlign=top;spacingLeft=4;spacingRight=4;overflow=hidden;rotatable=0;points=[[0,0.5],[1,0.5]];portConstraint=eastwest;" vertex="1" parent="KM9IbWNyBYNDadaW3vht-2">
                    <mxGeometry y="208" width="210" height="26" as="geometry"/>
                </mxCell>
                <mxCell id="zKldVMd_wIr9rpuhh8Ag-0" value="isbn varchar" style="text;strokeColor=none;fillColor=none;align=left;verticalAlign=top;spacingLeft=4;spacingRight=4;overflow=hidden;rotatable=0;points=[[0,0.5],[1,0.5]];portConstraint=eastwest;" vertex="1" parent="KM9IbWNyBYNDadaW3vht-2">
                    <mxGeometry y="234" width="210" height="26" as="geometry"/>
                </mxCell>
            </root>
        </mxGraphModel>
    </diagram>
    <diagram id="0JwJ1DDKSW0hJc31MjTm" name="Page-4">
        <mxGraphModel dx="850" dy="609" grid="1" gridSize="10" guides="1" tooltips="1" connect="1" arrows="1" fold="1" page="1" pageScale="1" pageWidth="827" pageHeight="1169" math="0" shadow="0">
            <root>
                <mxCell id="Vf0QPc6q8CmBNCq-ZRDr-0"/>
                <mxCell id="Vf0QPc6q8CmBNCq-ZRDr-1" parent="Vf0QPc6q8CmBNCq-ZRDr-0"/>
                <mxCell id="cL77VD8t0f-BctwVVjUS-0" value="book" style="swimlane;fontStyle=0;childLayout=stackLayout;horizontal=1;startSize=26;fillColor=none;horizontalStack=0;resizeParent=1;resizeParentMax=0;resizeLast=0;collapsible=1;marginBottom=0;" vertex="1" parent="Vf0QPc6q8CmBNCq-ZRDr-1">
                    <mxGeometry x="540" y="150" width="210" height="234" as="geometry"/>
                </mxCell>
                <mxCell id="cL77VD8t0f-BctwVVjUS-1" value="idÂ  int" style="text;strokeColor=none;fillColor=none;align=left;verticalAlign=top;spacingLeft=4;spacingRight=4;overflow=hidden;rotatable=0;points=[[0,0.5],[1,0.5]];portConstraint=eastwest;" vertex="1" parent="cL77VD8t0f-BctwVVjUS-0">
                    <mxGeometry y="26" width="210" height="26" as="geometry"/>
                </mxCell>
                <mxCell id="cL77VD8t0f-BctwVVjUS-2" value="title varchar" style="text;strokeColor=none;fillColor=none;align=left;verticalAlign=top;spacingLeft=4;spacingRight=4;overflow=hidden;rotatable=0;points=[[0,0.5],[1,0.5]];portConstraint=eastwest;" vertex="1" parent="cL77VD8t0f-BctwVVjUS-0">
                    <mxGeometry y="52" width="210" height="26" as="geometry"/>
                </mxCell>
                <mxCell id="cL77VD8t0f-BctwVVjUS-4" value="fk_publisher int" style="text;strokeColor=none;fillColor=none;align=left;verticalAlign=top;spacingLeft=4;spacingRight=4;overflow=hidden;rotatable=0;points=[[0,0.5],[1,0.5]];portConstraint=eastwest;" vertex="1" parent="cL77VD8t0f-BctwVVjUS-0">
                    <mxGeometry y="78" width="210" height="26" as="geometry"/>
                </mxCell>
                <mxCell id="cL77VD8t0f-BctwVVjUS-5" value="type varchar" style="text;strokeColor=none;fillColor=none;align=left;verticalAlign=top;spacingLeft=4;spacingRight=4;overflow=hidden;rotatable=0;points=[[0,0.5],[1,0.5]];portConstraint=eastwest;" vertex="1" parent="cL77VD8t0f-BctwVVjUS-0">
                    <mxGeometry y="104" width="210" height="26" as="geometry"/>
                </mxCell>
                <mxCell id="cL77VD8t0f-BctwVVjUS-6" value="read_statusÂ  enum(&quot;true&quot;, &quot;false&quot;)" style="text;strokeColor=none;fillColor=none;align=left;verticalAlign=top;spacingLeft=4;spacingRight=4;overflow=hidden;rotatable=0;points=[[0,0.5],[1,0.5]];portConstraint=eastwest;" vertex="1" parent="cL77VD8t0f-BctwVVjUS-0">
                    <mxGeometry y="130" width="210" height="26" as="geometry"/>
                </mxCell>
                <mxCell id="cL77VD8t0f-BctwVVjUS-7" value="read_date_startÂ  date" style="text;strokeColor=none;fillColor=none;align=left;verticalAlign=top;spacingLeft=4;spacingRight=4;overflow=hidden;rotatable=0;points=[[0,0.5],[1,0.5]];portConstraint=eastwest;" vertex="1" parent="cL77VD8t0f-BctwVVjUS-0">
                    <mxGeometry y="156" width="210" height="26" as="geometry"/>
                </mxCell>
                <mxCell id="cL77VD8t0f-BctwVVjUS-8" value="read_date_endÂ  date" style="text;strokeColor=none;fillColor=none;align=left;verticalAlign=top;spacingLeft=4;spacingRight=4;overflow=hidden;rotatable=0;points=[[0,0.5],[1,0.5]];portConstraint=eastwest;" vertex="1" parent="cL77VD8t0f-BctwVVjUS-0">
                    <mxGeometry y="182" width="210" height="26" as="geometry"/>
                </mxCell>
                <mxCell id="cL77VD8t0f-BctwVVjUS-9" value="isbn varchar" style="text;strokeColor=none;fillColor=none;align=left;verticalAlign=top;spacingLeft=4;spacingRight=4;overflow=hidden;rotatable=0;points=[[0,0.5],[1,0.5]];portConstraint=eastwest;" vertex="1" parent="cL77VD8t0f-BctwVVjUS-0">
                    <mxGeometry y="208" width="210" height="26" as="geometry"/>
                </mxCell>
                <mxCell id="cL77VD8t0f-BctwVVjUS-10" value="author" style="swimlane;fontStyle=0;childLayout=stackLayout;horizontal=1;startSize=26;fillColor=none;horizontalStack=0;resizeParent=1;resizeParentMax=0;resizeLast=0;collapsible=1;marginBottom=0;" vertex="1" parent="Vf0QPc6q8CmBNCq-ZRDr-1">
                    <mxGeometry x="20" y="100" width="210" height="130" as="geometry"/>
                </mxCell>
                <mxCell id="cL77VD8t0f-BctwVVjUS-11" value="idÂ  int" style="text;strokeColor=none;fillColor=none;align=left;verticalAlign=top;spacingLeft=4;spacingRight=4;overflow=hidden;rotatable=0;points=[[0,0.5],[1,0.5]];portConstraint=eastwest;" vertex="1" parent="cL77VD8t0f-BctwVVjUS-10">
                    <mxGeometry y="26" width="210" height="26" as="geometry"/>
                </mxCell>
                <mxCell id="cL77VD8t0f-BctwVVjUS-12" value="first_name varchar" style="text;strokeColor=none;fillColor=none;align=left;verticalAlign=top;spacingLeft=4;spacingRight=4;overflow=hidden;rotatable=0;points=[[0,0.5],[1,0.5]];portConstraint=eastwest;" vertex="1" parent="cL77VD8t0f-BctwVVjUS-10">
                    <mxGeometry y="52" width="210" height="26" as="geometry"/>
                </mxCell>
                <mxCell id="cL77VD8t0f-BctwVVjUS-19" value="last_name varchar" style="text;strokeColor=none;fillColor=none;align=left;verticalAlign=top;spacingLeft=4;spacingRight=4;overflow=hidden;rotatable=0;points=[[0,0.5],[1,0.5]];portConstraint=eastwest;" vertex="1" parent="cL77VD8t0f-BctwVVjUS-10">
                    <mxGeometry y="78" width="210" height="26" as="geometry"/>
                </mxCell>
                <mxCell id="cL77VD8t0f-BctwVVjUS-20" value="date_of_birthÂ  date" style="text;strokeColor=none;fillColor=none;align=left;verticalAlign=top;spacingLeft=4;spacingRight=4;overflow=hidden;rotatable=0;points=[[0,0.5],[1,0.5]];portConstraint=eastwest;" vertex="1" parent="cL77VD8t0f-BctwVVjUS-10">
                    <mxGeometry y="104" width="210" height="26" as="geometry"/>
                </mxCell>
                <mxCell id="ztTd_yC007ayTvm-pAPP-3" value="publisher" style="swimlane;fontStyle=0;childLayout=stackLayout;horizontal=1;startSize=26;fillColor=none;horizontalStack=0;resizeParent=1;resizeParentMax=0;resizeLast=0;collapsible=1;marginBottom=0;" vertex="1" parent="Vf0QPc6q8CmBNCq-ZRDr-1">
                    <mxGeometry x="140" y="280" width="210" height="104" as="geometry"/>
                </mxCell>
                <mxCell id="ztTd_yC007ayTvm-pAPP-4" value="idÂ  int" style="text;strokeColor=none;fillColor=none;align=left;verticalAlign=top;spacingLeft=4;spacingRight=4;overflow=hidden;rotatable=0;points=[[0,0.5],[1,0.5]];portConstraint=eastwest;" vertex="1" parent="ztTd_yC007ayTvm-pAPP-3">
                    <mxGeometry y="26" width="210" height="26" as="geometry"/>
                </mxCell>
                <mxCell id="ztTd_yC007ayTvm-pAPP-5" value="name" style="text;strokeColor=none;fillColor=none;align=left;verticalAlign=top;spacingLeft=4;spacingRight=4;overflow=hidden;rotatable=0;points=[[0,0.5],[1,0.5]];portConstraint=eastwest;" vertex="1" parent="ztTd_yC007ayTvm-pAPP-3">
                    <mxGeometry y="52" width="210" height="26" as="geometry"/>
                </mxCell>
                <mxCell id="ztTd_yC007ayTvm-pAPP-6" value="fk_address int" style="text;strokeColor=none;fillColor=none;align=left;verticalAlign=top;spacingLeft=4;spacingRight=4;overflow=hidden;rotatable=0;points=[[0,0.5],[1,0.5]];portConstraint=eastwest;" vertex="1" parent="ztTd_yC007ayTvm-pAPP-3">
                    <mxGeometry y="78" width="210" height="26" as="geometry"/>
                </mxCell>
                <mxCell id="ztTd_yC007ayTvm-pAPP-8" value="address" style="swimlane;fontStyle=0;childLayout=stackLayout;horizontal=1;startSize=26;fillColor=none;horizontalStack=0;resizeParent=1;resizeParentMax=0;resizeLast=0;collapsible=1;marginBottom=0;" vertex="1" parent="Vf0QPc6q8CmBNCq-ZRDr-1">
                    <mxGeometry x="140" y="420" width="210" height="182" as="geometry"/>
                </mxCell>
                <mxCell id="ztTd_yC007ayTvm-pAPP-9" value="idÂ  int" style="text;strokeColor=none;fillColor=none;align=left;verticalAlign=top;spacingLeft=4;spacingRight=4;overflow=hidden;rotatable=0;points=[[0,0.5],[1,0.5]];portConstraint=eastwest;" vertex="1" parent="ztTd_yC007ayTvm-pAPP-8">
                    <mxGeometry y="26" width="210" height="26" as="geometry"/>
                </mxCell>
                <mxCell id="ztTd_yC007ayTvm-pAPP-10" value="city varchar" style="text;strokeColor=none;fillColor=none;align=left;verticalAlign=top;spacingLeft=4;spacingRight=4;overflow=hidden;rotatable=0;points=[[0,0.5],[1,0.5]];portConstraint=eastwest;" vertex="1" parent="ztTd_yC007ayTvm-pAPP-8">
                    <mxGeometry y="52" width="210" height="26" as="geometry"/>
                </mxCell>
                <mxCell id="ztTd_yC007ayTvm-pAPP-11" value="country varchar" style="text;strokeColor=none;fillColor=none;align=left;verticalAlign=top;spacingLeft=4;spacingRight=4;overflow=hidden;rotatable=0;points=[[0,0.5],[1,0.5]];portConstraint=eastwest;" vertex="1" parent="ztTd_yC007ayTvm-pAPP-8">
                    <mxGeometry y="78" width="210" height="26" as="geometry"/>
                </mxCell>
                <mxCell id="ztTd_yC007ayTvm-pAPP-12" value="street_name varchar" style="text;strokeColor=none;fillColor=none;align=left;verticalAlign=top;spacingLeft=4;spacingRight=4;overflow=hidden;rotatable=0;points=[[0,0.5],[1,0.5]];portConstraint=eastwest;" vertex="1" parent="ztTd_yC007ayTvm-pAPP-8">
                    <mxGeometry y="104" width="210" height="26" as="geometry"/>
                </mxCell>
                <mxCell id="ztTd_yC007ayTvm-pAPP-13" value="house_numberÂ  int" style="text;strokeColor=none;fillColor=none;align=left;verticalAlign=top;spacingLeft=4;spacingRight=4;overflow=hidden;rotatable=0;points=[[0,0.5],[1,0.5]];portConstraint=eastwest;" vertex="1" parent="ztTd_yC007ayTvm-pAPP-8">
                    <mxGeometry y="130" width="210" height="26" as="geometry"/>
                </mxCell>
                <mxCell id="ztTd_yC007ayTvm-pAPP-14" value="districtÂ  varchar" style="text;strokeColor=none;fillColor=none;align=left;verticalAlign=top;spacingLeft=4;spacingRight=4;overflow=hidden;rotatable=0;points=[[0,0.5],[1,0.5]];portConstraint=eastwest;" vertex="1" parent="ztTd_yC007ayTvm-pAPP-8">
                    <mxGeometry y="156" width="210" height="26" as="geometry"/>
                </mxCell>
                <mxCell id="ztTd_yC007ayTvm-pAPP-15" style="edgeStyle=orthogonalEdgeStyle;html=1;exitX=1;exitY=0.5;exitDx=0;exitDy=0;entryX=0;entryY=0.5;entryDx=0;entryDy=0;startArrow=none;startFill=0;endArrow=none;endFill=0;" edge="1" parent="Vf0QPc6q8CmBNCq-ZRDr-1" source="ztTd_yC007ayTvm-pAPP-4" target="cL77VD8t0f-BctwVVjUS-4">
                    <mxGeometry relative="1" as="geometry"/>
                </mxCell>
                <mxCell id="ztTd_yC007ayTvm-pAPP-16" style="edgeStyle=orthogonalEdgeStyle;html=1;exitX=0;exitY=0.5;exitDx=0;exitDy=0;entryX=0;entryY=0.5;entryDx=0;entryDy=0;startArrow=none;startFill=0;endArrow=none;endFill=0;" edge="1" parent="Vf0QPc6q8CmBNCq-ZRDr-1" source="ztTd_yC007ayTvm-pAPP-6" target="ztTd_yC007ayTvm-pAPP-9">
                    <mxGeometry relative="1" as="geometry"/>
                </mxCell>
                <mxCell id="ztTd_yC007ayTvm-pAPP-17" value="authors" style="swimlane;fontStyle=0;childLayout=stackLayout;horizontal=1;startSize=26;fillColor=none;horizontalStack=0;resizeParent=1;resizeParentMax=0;resizeLast=0;collapsible=1;marginBottom=0;" vertex="1" parent="Vf0QPc6q8CmBNCq-ZRDr-1">
                    <mxGeometry x="300" y="90" width="210" height="104" as="geometry"/>
                </mxCell>
                <mxCell id="ztTd_yC007ayTvm-pAPP-18" value="idÂ  int" style="text;strokeColor=none;fillColor=none;align=left;verticalAlign=top;spacingLeft=4;spacingRight=4;overflow=hidden;rotatable=0;points=[[0,0.5],[1,0.5]];portConstraint=eastwest;" vertex="1" parent="ztTd_yC007ayTvm-pAPP-17">
                    <mxGeometry y="26" width="210" height="26" as="geometry"/>
                </mxCell>
                <mxCell id="ztTd_yC007ayTvm-pAPP-19" value="fk_authorÂ  int" style="text;strokeColor=none;fillColor=none;align=left;verticalAlign=top;spacingLeft=4;spacingRight=4;overflow=hidden;rotatable=0;points=[[0,0.5],[1,0.5]];portConstraint=eastwest;" vertex="1" parent="ztTd_yC007ayTvm-pAPP-17">
                    <mxGeometry y="52" width="210" height="26" as="geometry"/>
                </mxCell>
                <mxCell id="ztTd_yC007ayTvm-pAPP-20" value="fk_bookÂ  int" style="text;strokeColor=none;fillColor=none;align=left;verticalAlign=top;spacingLeft=4;spacingRight=4;overflow=hidden;rotatable=0;points=[[0,0.5],[1,0.5]];portConstraint=eastwest;" vertex="1" parent="ztTd_yC007ayTvm-pAPP-17">
                    <mxGeometry y="78" width="210" height="26" as="geometry"/>
                </mxCell>
                <mxCell id="ztTd_yC007ayTvm-pAPP-22" style="edgeStyle=orthogonalEdgeStyle;html=1;exitX=1;exitY=0.5;exitDx=0;exitDy=0;entryX=0;entryY=0.5;entryDx=0;entryDy=0;startArrow=none;startFill=0;endArrow=none;endFill=0;" edge="1" parent="Vf0QPc6q8CmBNCq-ZRDr-1" source="cL77VD8t0f-BctwVVjUS-11" target="ztTd_yC007ayTvm-pAPP-19">
                    <mxGeometry relative="1" as="geometry"/>
                </mxCell>
                <mxCell id="ztTd_yC007ayTvm-pAPP-23" style="edgeStyle=orthogonalEdgeStyle;html=1;exitX=0;exitY=0.5;exitDx=0;exitDy=0;entryX=1;entryY=0.5;entryDx=0;entryDy=0;startArrow=none;startFill=0;endArrow=none;endFill=0;" edge="1" parent="Vf0QPc6q8CmBNCq-ZRDr-1" source="cL77VD8t0f-BctwVVjUS-1" target="ztTd_yC007ayTvm-pAPP-20">
                    <mxGeometry relative="1" as="geometry"/>
                </mxCell>
            </root>
        </mxGraphModel>
    </diagram>
</mxfile>